<svg width="435" height="427" viewBox="0 0 435 427" fill="none" xmlns="http://www.w3.org/2000/svg">
<path d="M333.76 95.6093C381.917 131.733 417 169.15 417 211.908C417 289.898 372.206 357.432 306.931 390.206M333.76 95.6093C299.052 69.5734 257.552 44.2089 217.5 18C117.062 86.7615 18 150.022 18 211.908C18 311.034 90.3624 393.268 185.167 408.71C198.926 410.952 201.795 406.244 215.5 390.206M333.76 95.6093V32.4399M215.5 390.206C253.159 346.137 310 260.592 310 210C310 162.752 271.002 120 219 120C162 120 125.5 165.993 125.5 210C125.5 266.092 176.798 323.441 215.5 390.206Z" stroke="white" stroke-width="35" stroke-linecap="round" stroke-linejoin="round"/>
<circle cx="218" cy="212" r="27" fill="white"/>
</svg>
